<svg width="612" height="953" viewBox="0 0 612 953" fill="none" xmlns="http://www.w3.org/2000/svg">
<path opacity="0.3" d="M237.101 2.09993C243.401 5.69993 248.401 14.4999 248.401 21.6999V214.9L305.701 248V447.3C305.701 454.5 300.601 457.4 294.401 453.8C288.101 450.2 283.101 441.4 283.101 434.2V261L225.701 228V8.59993C225.701 1.39993 230.801 -1.50007 237.101 2.09993Z" fill="url(#paint0_linear_514_1514)"/>
<path opacity="0.3" d="M268.3 841.3C274.6 844.9 279.6 842 279.6 834.8V690L336.9 723.1V628.3C336.9 621.1 331.8 612.3 325.6 608.7C319.3 605.1 314.3 608 314.3 615.2V683.9L257 650.8V821.7C257 828.9 262.1 837.7 268.3 841.3Z" fill="url(#paint1_linear_514_1514)"/>
<path opacity="0.3" d="M356.401 143.9C362.701 147.5 367.701 156.3 367.701 163.5V492.2C367.701 499.4 362.601 502.3 356.401 498.7C350.101 495.1 345.101 486.3 345.101 479.1V150.4C345.101 143.2 350.201 140.3 356.401 143.9Z" fill="url(#paint2_linear_514_1514)"/>
<path d="M292.2 824.8C292.2 844.6 280.6 854 266.3 845.7C252 837.5 240.4 814.7 240.4 794.9C240.4 775.1 252 765.7 266.3 774C280.6 782.2 292.2 805 292.2 824.8Z" fill="#F2C94C"/>
<path opacity="0.3" d="M482.5 308.7C476.2 305.1 471.2 308 471.2 315.2V412.8L413.9 379.7V499.6C413.9 506.8 419 515.6 425.2 519.2C431.5 522.8 436.5 519.9 436.5 512.7V418.9L493.8 452V328.3C493.8 321.1 488.7 312.3 482.5 308.7Z" fill="url(#paint3_linear_514_1514)"/>
<path d="M507.901 343.2C507.901 362.8 496.401 372 482.301 363.9C468.201 355.7 456.701 333.3 456.701 313.7C456.701 294.1 468.101 284.9 482.301 293C496.501 301.2 507.901 323.6 507.901 343.2Z" fill="#F2994A"/>
<path opacity="0.3" d="M592.101 842.4C592.101 835.2 587.001 826.4 580.801 822.8L491.801 771.4V696.9L403.401 645.9C397.101 642.3 392.101 645.2 392.101 652.4C392.101 659.6 397.201 668.4 403.401 672L469.201 710V784.5L580.901 848.9C587.101 852.5 592.101 849.6 592.101 842.4Z" fill="url(#paint4_linear_514_1514)"/>
<path opacity="0.3" d="M377.3 950.8C371 947.2 366 938.4 366 931.2V694.2C366 687 371.1 684.1 377.3 687.7C383.6 691.3 388.6 700.1 388.6 707.3V944.3C388.6 951.5 383.5 954.4 377.3 950.8Z" fill="url(#paint5_linear_514_1514)"/>
<path d="M605.901 851C605.901 870.8 594.301 880.2 580.001 871.9C565.701 863.7 554.101 840.9 554.101 821.1C554.101 801.3 565.701 791.9 580.001 800.2C594.301 808.4 605.901 831.2 605.901 851Z" fill="#F2994A"/>
<path opacity="0.3" d="M52 453.2L214.8 547.2V848.8L52 754.8V453.2Z" fill="url(#paint6_linear_514_1514)"/>
<path opacity="0.15" d="M77.8008 645L174.801 701V712.9L77.8008 656.9V645V645Z" fill="white"/>
<path opacity="0.15" d="M87.9004 674.3L164.8 718.7V730.6L87.9004 686.2V674.3Z" fill="white"/>
<path d="M114.1 728L0.900391 662.6V696.3L114.2 761.7L114.1 728Z" fill="#F2C94C"/>
<path opacity="0.2" d="M168.7 577.3L143.4 597.3L126.4 575.5L104.2 594.7L95.4004 588.3L128.1 560.8L144.7 582.6L163 569L168.7 577.3Z" fill="white"/>
<path d="M187.701 576.8C187.701 588.1 181.101 593.4 173.001 588.7C164.901 584 158.301 571.1 158.301 559.8C158.301 548.5 164.901 543.2 173.001 547.9C181.101 552.6 187.701 565.6 187.701 576.8Z" fill="#F2C94C"/>
<path d="M111.9 598.6C111.9 609.9 105.3 615.2 97.2 610.5C89.1 605.8 82.5 592.9 82.5 581.6C82.5 570.3 89.1 565 97.2 569.7C105.3 574.4 111.9 587.3 111.9 598.6Z" fill="#F2C94C"/>
<path opacity="0.2" d="M611.501 650.4L456.701 561V641.6L611.501 731V650.4Z" fill="url(#paint7_linear_514_1514)"/>
<path opacity="0.15" d="M496.301 603.4L542.901 630.3V640L496.301 613V603.4Z" fill="white"/>
<path opacity="0.15" d="M496.4 622.8L595.6 680V689.8L496.4 632.6V622.8Z" fill="white"/>
<path d="M488.201 606.2C488.201 612.8 484.301 616 479.401 613.2C474.501 610.4 470.601 602.7 470.601 596.1C470.601 589.5 474.501 586.3 479.401 589.1C484.301 591.9 488.201 599.6 488.201 606.2Z" fill="#F2994A"/>
<path opacity="0.2" d="M214.3 403.9L59.5 314.5V395.1L214.3 484.5V403.9Z" fill="url(#paint8_linear_514_1514)"/>
<path opacity="0.15" d="M99.1006 356.9L145.701 383.8V393.5L99.1006 366.6V356.9Z" fill="white"/>
<path opacity="0.15" d="M99.2012 376.3L198.401 433.5V443.3L99.2012 386.1V376.3Z" fill="white"/>
<path d="M91.0004 359.7C91.0004 366.3 87.1004 369.5 82.2004 366.7C77.3004 363.9 73.4004 356.2 73.4004 349.6C73.4004 343 77.3004 339.8 82.2004 342.6C87.0004 345.4 91.0004 353.1 91.0004 359.7Z" fill="#F2994A"/>
<path opacity="0.2" d="M418.801 579.1C418.801 628.1 390.101 651.3 354.801 630.9C319.401 610.5 290.801 554.2 290.801 505.2C290.801 456.2 319.501 433 354.801 453.4C390.201 473.8 418.801 530.1 418.801 579.1Z" fill="url(#paint9_linear_514_1514)"/>
<path opacity="0.4" d="M329.6 554.8C331.3 554.3 332.2 552.5 332.2 549.4C332.2 546.2 331.3 543.4 329.6 541.1C327.8 538.8 325.2 536.6 321.8 534.7C320.7 534.1 319.5 533.4 318.2 532.8C316.9 532.1 315.8 531.5 314.8 531.1V548.3L321.1 551.9C325.1 554.2 327.9 555.1 329.6 554.8Z" fill="#00FFBD"/>
<path opacity="0.4" d="M322.8 566.6L314.7 561.9V582.5C315.7 583.2 316.7 583.9 317.7 584.5C318.8 585.2 320 585.9 321.3 586.7C325.2 588.9 328.3 590 330.7 589.8C333.1 589.7 334.3 587.5 334.3 583.4C334.3 579.8 333.3 576.6 331.3 573.9C329.3 571.2 326.5 568.7 322.8 566.6Z" fill="#00FFBD"/>
<path opacity="0.4" d="M325 473.4C289.6 453 261 476.2 261 525.2C261 574.2 289.7 630.5 325 650.9C360.4 671.3 389 648.1 389 599.1C389 550.1 360.3 493.8 325 473.4ZM340.8 606.4C337.4 607.7 332.7 607 326.7 604.3V616.3L314.4 609.2V597.3C313.5 596.8 312.7 596.2 311.8 595.6C308.7 593.5 305.5 591 302.1 588.1V510.7C304.7 511.5 307.6 512.7 310.8 514.2C312 514.7 313.2 515.3 314.4 515.9V504L326.7 511.1L326.6 523.3C327.6 524.1 328.6 524.8 329.5 525.6C332.6 528.1 335.3 530.9 337.5 533.9C339.7 536.9 341.4 540.3 342.6 543.9C343.9 547.5 344.5 551.4 344.5 555.6C344.5 562 342.3 565.8 337.9 566.9C341.6 570.9 344.1 574.9 345.4 579C346.7 583 347.4 587.2 347.4 591.3C347.4 599.7 345.2 604.7 340.8 606.4Z" fill="#00FFBD"/>
<defs>
<linearGradient id="paint0_linear_514_1514" x1="350.67" y1="80.7431" x2="186.581" y2="365.027" gradientUnits="userSpaceOnUse">
<stop stop-color="#00FFBD"/>
<stop offset="1" stop-color="#00FFBD" stop-opacity="0"/>
</linearGradient>
<linearGradient id="paint1_linear_514_1514" x1="231.98" y1="807.272" x2="335.706" y2="627.567" gradientUnits="userSpaceOnUse">
<stop stop-color="#00FFBD"/>
<stop offset="1" stop-color="#00FFBD" stop-opacity="0"/>
</linearGradient>
<linearGradient id="paint2_linear_514_1514" x1="427.564" y1="198.008" x2="285.238" y2="444.591" gradientUnits="userSpaceOnUse">
<stop stop-color="#00FFBD"/>
<stop offset="1" stop-color="#00FFBD" stop-opacity="0"/>
</linearGradient>
<linearGradient id="paint3_linear_514_1514" x1="543.156" y1="261.129" x2="407.575" y2="496.022" gradientUnits="userSpaceOnUse">
<stop stop-color="#00FFBD"/>
<stop offset="1" stop-color="#00FFBD" stop-opacity="0"/>
</linearGradient>
<linearGradient id="paint4_linear_514_1514" x1="629.403" y1="747.416" x2="403.392" y2="747.39" gradientUnits="userSpaceOnUse">
<stop stop-color="#00FFBD"/>
<stop offset="1" stop-color="#00FFBD" stop-opacity="0"/>
</linearGradient>
<linearGradient id="paint5_linear_514_1514" x1="325.958" y1="908.076" x2="428.748" y2="730.24" gradientUnits="userSpaceOnUse">
<stop stop-color="#00FFBD"/>
<stop offset="1" stop-color="#00FFBD" stop-opacity="0"/>
</linearGradient>
<linearGradient id="paint6_linear_514_1514" x1="232.233" y1="479.772" x2="87.7044" y2="730.168" gradientUnits="userSpaceOnUse">
<stop stop-color="#00FFBD"/>
<stop offset="1" stop-color="#00FFBD" stop-opacity="0"/>
</linearGradient>
<linearGradient id="paint7_linear_514_1514" x1="551.56" y1="615.753" x2="516.642" y2="676.247" gradientUnits="userSpaceOnUse">
<stop stop-color="#00FFBD"/>
<stop offset="1" stop-color="#00FFBD" stop-opacity="0"/>
</linearGradient>
<linearGradient id="paint8_linear_514_1514" x1="154.359" y1="369.253" x2="119.441" y2="429.747" gradientUnits="userSpaceOnUse">
<stop stop-color="#00FFBD"/>
<stop offset="1" stop-color="#00FFBD" stop-opacity="0"/>
</linearGradient>
<linearGradient id="paint9_linear_514_1514" x1="367.658" y1="468.933" x2="338.713" y2="633.763" gradientUnits="userSpaceOnUse">
<stop stop-color="#00FFBD"/>
<stop offset="1" stop-color="#00FFBD" stop-opacity="0"/>
</linearGradient>
</defs>
</svg>
